<svg width="22" height="18" viewBox="0 0 22 18" fill="none" xmlns="http://www.w3.org/2000/svg">
<path d="M2.32682 7.27631H2.81818L3.84839 4.52909C4.34962 3.19247 5.38951 2.10359 6.75587 1.69026C9.78926 0.772642 12.121 0.765822 15.2265 1.69435C16.6025 2.10576 17.6526 3.19834 18.1568 4.54304L19.1818 7.27631H19.6732C20.1036 7.27631 20.4858 7.55174 20.6219 7.96008L20.7806 8.43638C20.8886 8.76014 20.6476 9.09449 20.3063 9.09449H19.7879L20.0909 10.0036V15.3066C20.0909 16.3944 19.209 17.2763 18.1212 17.2763C17.0334 17.2763 16.1515 16.3944 16.1515 15.3066V15.1551H5.84848V15.3066C5.84848 16.3944 4.96662 17.2763 3.87879 17.2763C2.79095 17.2763 1.90909 16.3944 1.90909 15.3066V10.0036L2.21212 9.09449H1.69371C1.35243 9.09449 1.11145 8.76014 1.21937 8.43638L1.37814 7.96008C1.51425 7.55174 1.89639 7.27631 2.32682 7.27631Z" fill="white" stroke="white" stroke-linecap="round" stroke-linejoin="round"/>
<path d="M17.276 6.48653L16.3423 3.87235C16.2238 3.54049 15.9383 3.29446 15.5918 3.23009C12.066 2.57496 9.8787 2.56818 6.40387 3.22823C6.05938 3.29367 5.77605 3.5391 5.65811 3.86932L4.72501 6.48199C4.51889 7.05914 4.877 7.68554 5.48071 7.79098C9.67412 8.5234 12.4232 8.52347 16.5242 7.79422C17.1259 7.68722 17.4815 7.06212 17.276 6.48653Z" fill="#5B67EC"/>
<path d="M6.50948 11.875H4.1817C3.73401 11.875 3.37109 11.5121 3.37109 11.0644C3.37109 10.6167 3.73401 10.2538 4.1817 10.2538H4.21694C4.25862 10.2538 4.29984 10.2625 4.33794 10.2795L6.63173 11.2989C6.74043 11.3472 6.81049 11.455 6.81049 11.574C6.81049 11.7402 6.67572 11.875 6.50948 11.875Z" fill="#5B67EC" stroke="#5B67EC" stroke-width="0.5" stroke-linecap="round" stroke-linejoin="round"/>
<path d="M15.7933 11.875H18.121C18.5687 11.875 18.9316 11.5121 18.9316 11.0644C18.9316 10.6167 18.5687 10.2538 18.121 10.2538H18.0858C18.0441 10.2538 18.0029 10.2625 17.9648 10.2795L15.671 11.2989C15.5623 11.3472 15.4922 11.455 15.4922 11.574C15.4922 11.7402 15.627 11.875 15.7933 11.875Z" fill="#5B67EC" stroke="#5B67EC" stroke-width="0.5" stroke-linecap="round" stroke-linejoin="round"/>
</svg>
